<svg width="97" height="97" viewBox="0 0 97 97" fill="none" xmlns="http://www.w3.org/2000/svg">
<circle cx="48.5" cy="48.5" r="48.5" fill="white"/>
<path d="M27.573 24.584C28.5565 24.3247 29.7635 24.0535 30.2553 23.982C30.747 23.9135 32.2222 23.9075 33.5335 23.9701C34.8448 24.0327 36.8565 24.3694 38.0039 24.7181C39.1513 25.0668 40.8917 25.7731 41.8752 26.2917C42.8557 26.8073 44.7064 28.2348 48.3155 31.7008L50.6848 29.3911C52.5087 27.6119 53.6203 26.8132 55.5128 25.9192C56.8658 25.2814 58.7076 24.578 59.6106 24.3575C60.5285 24.134 62.6296 23.9731 64.379 23.9969C66.8526 24.0267 68.0089 24.1966 69.8924 24.8016C71.2037 25.2248 72.9471 25.9966 73.7667 26.5182C74.5863 27.0397 75.829 27.9517 76.5264 28.5418C77.2268 29.1318 78.4606 30.4849 79.2682 31.5518C80.0729 32.6157 81.0891 34.2936 81.5243 35.2771C81.9564 36.2606 82.5167 38.0696 82.77 39.3004C83.0859 40.8352 83.1872 42.5191 83.0919 44.6648C83.0174 46.3874 82.8654 47.961 82.7581 48.1666C82.627 48.411 81.8372 48.5391 80.4722 48.5391C78.6126 48.5391 78.4069 48.4825 78.5708 48.0176C78.6722 47.7315 78.8212 46.2205 78.9046 44.6648C78.9881 43.0794 78.9076 41.1124 78.7199 40.1945C78.5351 39.2915 77.9003 37.548 77.3132 36.3202C76.5562 34.7436 75.6979 33.5575 74.4015 32.2969C73.3882 31.3134 71.8266 30.1481 70.9295 29.71C70.0295 29.2719 68.4917 28.6997 67.5082 28.4434C66.5247 28.1841 65.0495 27.9725 64.23 27.9696C63.4104 27.9696 62.0037 28.1037 61.1007 28.2706C60.1977 28.4345 58.5228 29.0335 57.3754 29.5968C56.0879 30.2286 54.6217 31.2836 53.5458 32.3535C52.5862 33.3042 51.0782 35.2592 50.193 36.6927C49.3079 38.1262 48.4824 39.3064 48.3602 39.3123C48.238 39.3213 47.3797 38.1471 46.4558 36.7046C45.529 35.2652 43.9196 33.2774 42.8795 32.2879C41.8365 31.2985 40.1109 30.0587 39.047 29.5312C37.983 29.0037 36.3051 28.4226 35.3217 28.2408C34.3352 28.059 32.5649 27.9904 31.3728 28.0917C30.1837 28.1901 28.4403 28.5626 27.4985 28.9173C26.5568 29.2689 25.2812 29.8739 24.6673 30.2584C24.0534 30.6428 23.0014 31.4594 22.3278 32.0733C21.6573 32.6873 20.6738 33.8615 20.1433 34.681C19.6128 35.5006 18.8559 36.9758 18.4595 37.9593C17.8396 39.5001 17.7412 40.2243 17.7502 43.1747C17.7591 46.3189 17.8396 46.7987 18.7128 48.9862C19.2373 50.2975 20.2953 52.4433 21.0672 53.7546C21.8361 55.0659 23.4901 57.4799 27.0157 62.0992L26.7892 64.1854C26.6641 65.3328 26.5568 66.5398 26.5508 67.4636L25.9041 66.8676C25.5495 66.5398 24.1577 64.9304 22.8076 63.2913C21.4606 61.6522 19.6814 59.3038 18.8529 58.0759C18.0273 56.8451 16.8174 54.7678 16.1587 53.4565C15.5031 52.1452 14.6537 50.065 14.2663 48.8372C13.6822 46.9715 13.5689 45.9851 13.5808 42.8767C13.5957 39.6014 13.6941 38.8802 14.4034 36.9162C14.8474 35.6854 15.6432 33.9539 16.1766 33.0687C16.7071 32.1806 18.0214 30.5713 19.1002 29.4925C20.3937 28.1931 21.857 27.1112 23.4216 26.2917C24.721 25.6122 26.5896 24.8433 27.573 24.584Z" fill="#014490"/>
<path d="M70.9027 61.6522C72.1484 60.0935 73.7041 57.9835 74.3568 56.9583L75.5429 55.0957H77.7096C78.9553 55.0957 79.8762 55.2238 79.8762 55.3937C79.8762 55.5576 79.2205 56.7974 78.4189 58.1504C77.6172 59.5034 76.3595 61.4138 75.6204 62.3972C74.8843 63.3807 73.2929 65.2791 72.0859 66.6143C70.8789 67.9464 68.8881 69.9462 67.6572 71.0548C66.4294 72.1605 64.1495 74.0142 62.5908 75.1705C61.0351 76.3299 58.6867 77.8408 57.3754 78.5293C56.0641 79.2207 54.1866 80.0462 53.2031 80.3681C52.2196 80.6899 50.6788 81.0476 49.7758 81.1638C48.8639 81.283 47.3439 81.2323 46.3485 81.0535C45.3651 80.8777 43.4875 80.1982 42.1762 79.5485C40.8649 78.8958 39.1334 77.7872 38.3287 77.0868C37.5241 76.3835 36.3677 75.0692 35.7568 74.1692C35.1458 73.2662 34.3292 71.633 33.9418 70.5392C33.5544 69.4425 33.3398 68.4382 33.465 68.3041C33.5931 68.17 34.3292 68.6855 35.1041 69.4515C35.879 70.2174 37.7893 71.7939 39.345 72.9532C40.9036 74.1155 42.9153 75.4149 43.8153 75.8381C44.7183 76.2613 46.125 76.7471 46.9446 76.914C47.9638 77.1196 48.9056 77.1196 49.9248 76.905C50.7444 76.7352 52.154 76.3209 53.0541 75.9871C53.9571 75.6533 55.632 74.8159 56.7794 74.1275C57.9268 73.442 59.8728 72.1158 61.1007 71.186C62.3315 70.2561 64.528 68.3667 65.9853 66.9898C67.4426 65.6099 69.654 63.2079 70.9027 61.6522Z" fill="#014490"/>
<path fill-rule="evenodd" clip-rule="evenodd" d="M59.1635 33.927C59.4914 33.9181 59.9235 34.082 60.1232 34.2966C60.3258 34.5082 61.1692 38.1679 62.0037 42.4297C62.8352 46.6914 63.6577 50.9829 63.8336 51.9664C64.0064 52.9499 64.2359 53.8559 64.3402 53.9781C64.4415 54.1032 65.1985 51.9694 66.0181 49.2395C67.1893 45.3354 67.6572 44.1731 68.2086 43.7976C68.7241 43.4519 69.0401 43.4072 69.4007 43.6307C69.6719 43.8006 70.5957 45.3771 73.0216 50.3273L79.9507 50.3362C86.1019 50.3422 86.9394 50.3988 87.4102 50.8578C87.7023 51.1379 87.9437 51.6386 87.9467 51.9664C87.9467 52.2942 87.7768 52.7264 87.5622 52.929C87.2731 53.2032 85.1661 53.2777 71.0845 53.1585L70.1576 51.3704C69.645 50.3869 69.1593 49.7163 69.0758 49.8802C68.9924 50.0442 68.1579 52.7264 67.2221 55.8407C66.2863 58.9551 65.3654 61.676 65.1747 61.8876C64.981 62.1022 64.4564 62.2691 64.0064 62.2602C63.464 62.2542 63.0706 62.0217 62.8471 61.5777C62.6594 61.2081 61.7832 57.152 60.901 52.5625C60.0189 47.9729 59.1874 43.884 59.0533 43.4727C58.8566 42.8797 58.5466 43.8244 57.5304 48.0921C56.827 51.0425 56.0373 53.7009 55.772 53.996C55.4859 54.3148 54.9823 54.4996 54.5442 54.443C53.9273 54.3655 53.5607 53.8618 51.0424 48.6882L48.7327 53.1585L45.4545 53.3463C43.6514 53.4476 41.7739 53.6353 41.2821 53.7605C40.7904 53.8887 39.7175 54.2821 38.8979 54.6337C38.0784 54.9854 36.7552 55.8705 35.9535 56.6007C35.1548 57.3308 34.0908 58.5319 33.5931 59.268C33.0924 60.0071 32.4278 61.3482 32.1119 62.2482C31.7454 63.3003 31.5308 64.7427 31.5159 66.2715C31.501 67.7319 31.6947 69.3501 32.0166 70.4439C32.3027 71.4274 34.1802 73.7698 34.5766 74.4672C34.6988 74.4642 34.973 75.1646 34.5766 74.4672C34.4544 74.4672 32.3921 73.6268 28.4671 69.6869L28.3598 67.2342C28.2913 65.6308 28.4224 64.1109 28.7383 62.8443C29.0036 61.7803 29.6443 60.0339 30.1629 58.97C30.7738 57.7123 31.7901 56.3503 33.0626 55.0867C34.1415 54.0168 35.8283 52.7145 36.8118 52.1929C37.7953 51.6684 39.5387 51.0366 40.6861 50.7892C41.8335 50.5419 43.6782 50.3362 46.7956 50.3273L48.2857 47.198C49.1231 45.4367 50.0351 43.9377 50.3719 43.7708C50.7692 43.5721 51.1666 43.5721 51.5639 43.7708C51.8918 43.9347 52.6249 45.0403 53.1941 46.2295C53.814 47.5199 54.2909 48.2113 54.3773 47.9431C54.4578 47.6987 55.2654 44.5605 56.1714 40.9723C57.0774 37.3841 57.9864 34.3353 58.192 34.1953C58.3976 34.0582 58.8357 33.936 59.1635 33.927ZM48.5241 56.8302C48.7387 57.1043 49.6596 58.3382 50.5715 59.566C51.4835 60.7969 52.5474 62.4717 52.9378 63.2913C53.4057 64.2808 53.6471 65.3328 53.6561 66.4206C53.665 67.7795 53.513 68.2772 52.765 69.3263C52.2673 70.0237 51.4924 70.7806 51.0424 71.0101C50.5924 71.2396 49.7549 71.5197 49.1798 71.633C48.6046 71.7433 47.5347 71.6747 46.7956 71.478C45.973 71.2575 45.0372 70.7002 44.3726 70.0356C43.7438 69.4068 43.1269 68.3905 42.9004 67.6127C42.5905 66.5398 42.5845 66.0033 42.8736 64.9304C43.0733 64.1943 43.9256 62.585 44.769 61.3542C45.6124 60.1263 46.7151 58.4902 47.2188 57.7242C48.0413 56.4725 48.1754 56.3801 48.5241 56.8302Z" fill="#F57C71"/>
</svg>
